<svg xmlns="http://www.w3.org/2000/svg" enable-background="new 0 0 67 67" viewBox="0 0 67 67" id="fertilizer-bag"><path d="M18.9 29.7V36c0 .5.4.9.8 1 6.7 1 12.2 1.5 17.6 1.5 5.3 0 10.5-.5 15.9-1.5.5-.1.8-.5.8-1v-6.3c0-1-.8-1.8-1.9-1.8H20.8C19.8 27.9 18.9 28.7 18.9 29.7zM24.3 25.9h23.9C38.9 17.1 30.3 18.5 24.3 25.9z"></path><path d="M24.7 16.8l-2.6 2.6c-.2.2-.3.4-.3.7 0 .3.1.5.3.7l2.1 2.1c3.4-3.4 7.2-5.1 11.3-5.1 1.2 0 2.3.1 3.5.4-.8-2-1.9-3.8-3.4-5.3l-2.8-2.8c-.4-.4-1-.4-1.4 0l-2.5 2.5c-.9-.5-2.5-1.7-3.5-4.2-.7-1.9-4.2-5.3-6.3-7-1.7-1.4-4.1-1.3-5.5.1-1.4 1.4-1.5 3.8-.1 5.5 1.8 2.2 5.1 5.7 7.1 6.3C23.3 14.3 24.4 16 24.7 16.8zM28.7 45.4c.7 4 2.8 7.4 6.9 6.9-.1-.4.3-2.2-1-3.9C33.2 46.5 30.4 45.7 28.7 45.4zM37.8 52.4c4.1.4 6.2-2.9 6.9-6.9C40.6 46.2 37.3 48.2 37.8 52.4z"></path><path d="M53.2,39c-5.3,1-10.5,1.4-15.8,1.4C32,40.4,26.5,40,19.9,39c-2.3,9.1-2,15.3,1,22.8c0.5,1.3,1.6,2.3,3,2.7
	c5.1,1.4,9.1,2,12.9,2c3.8,0,7.6-0.6,12.4-1.9c1.4-0.4,2.6-1.5,3.1-2.8C55,54.3,55.3,48,53.2,39z M37.7,54.4v4.8c0,0.6-0.4,1-1,1
	s-1-0.4-1-1v-4.8c-5.6,0.5-8.7-4.6-9.1-10c0-0.3,0.1-0.6,0.3-0.8c0.2-0.2,0.5-0.3,0.8-0.3c3.2,0.2,7.3,1.7,9.1,4.6
	c1.8-2.9,5.9-4.4,9.1-4.6c0.3,0,0.6,0.1,0.8,0.3c0.2,0.2,0.3,0.5,0.3,0.8C46.5,49.7,43.4,54.9,37.7,54.4z"></path>
</svg>